<?xml version="1.0" encoding="utf-8" ?><svg xmlns="http://www.w3.org/2000/svg" xmlns:xlink="http://www.w3.org/1999/xlink" width="1500" height="1500" viewBox="0 0 1500 1500"><path d="M728.846 15.0692C1134.65 3.39926 1473.12 322.838 1484.93 728.642C1496.73 1134.45 1177.41 1473.02 771.605 1484.96C365.615 1496.91 26.8465 1177.4 15.0362 771.401C3.22591 365.407 322.848 26.7446 728.846 15.0692ZM799.625 1385.2C967.783 1372.07 1123.88 1292.82 1233.72 1164.82C1343.41 1036.97 1397.99 870.871 1385.5 702.877C1379.93 627.926 1363.95 568.299 1336.04 499.319C1314 498.737 1290.56 499.101 1268.43 499.104L1149.94 499.127L802.747 499.14L799.799 499.37C797.918 502.241 799.062 899.503 799.064 947.598L799.09 1012.56C799.129 1025.34 800.253 1051.11 797.633 1062.22C793.733 1078.77 777.254 1095.12 760.305 1097.97C748.151 1100.02 726.033 1099.2 712.697 1099.2L623.048 1099.18L355.165 1099.18C309.617 1099.18 262.296 1098.43 216.973 1099.26C309.219 1240.15 453.515 1338.77 618.29 1373.53C677.861 1386.11 738.933 1390.04 799.625 1385.2ZM164.022 1000.72C184.285 1001.26 205.935 1000.92 226.308 1000.92L337.067 1000.91L667.419 1000.9L700.931 1000.9L700.946 613.743L700.949 495.077C700.994 485.278 700.96 475.479 700.85 465.68C700.771 459.979 700.362 450.07 700.995 444.633C702.21 433.444 707.186 422.998 715.109 415.004C728.567 401.556 741.78 400.502 759.463 400.674L1283.08 400.839C1190.42 259.405 1045.34 160.6 879.794 126.183C836.137 117.216 775.176 110.597 730.324 113.111C690.294 115.022 658.434 118.301 618.835 126.551C488.315 153.893 369.683 221.55 279.698 319.966C165.284 445.111 105.452 610.688 113.439 780.063C117.104 856.03 134.231 930.744 164.022 1000.72Z"/><path d="M899.048 594.015L987.556 594.013C987.999 615.238 987.625 637.929 987.628 659.256L987.614 783.857C1009.06 784.308 1032.05 783.929 1053.62 783.932L1179.96 783.972L1179.99 594.009L1267.91 594.017C1269.08 690.234 1267.95 789.091 1267.95 885.505L1267.95 992.891C1267.95 1009.71 1268.77 1032.94 1267.74 1049.01L1180 1048.98L1180 859.126L987.679 859.175C986.507 921.454 987.859 986.362 987.55 1049.01L899.016 1048.98L899.048 594.015Z"/><path d="M296.138 424.108C320.155 423.117 352.003 424.014 376.75 424.013L530.532 424.086C538.705 431.478 548.895 442.289 556.848 450.234L604.974 498.415L604.987 804.637L530.692 878.909C506.274 879.905 476.532 879.034 451.54 879.034L296.416 879.013L221.969 804.597L222 498.259C245.399 473.783 272.022 448.214 296.138 424.108ZM309.962 532.3L309.957 770.768C320.673 781.489 332.32 793.635 343.215 803.992L483.687 804.043L517.012 770.689C517.059 691.776 517.984 610.951 517.007 532.232C506.255 521.487 494.843 509.632 483.933 499.189C455.41 498.987 426.887 498.938 398.363 499.04C380.906 499.044 360.303 498.535 343.066 499.168C332.306 509.818 320.323 521.365 309.962 532.3Z"/></svg>